<svg xmlns="http://www.w3.org/2000/svg" version="1.1" xmlns:xlink="http://www.w3.org/1999/xlink" width="200" height="200"><svg xmlns="http://www.w3.org/2000/svg" version="1.1" xmlns:xlink="http://www.w3.org/1999/xlink" viewBox="0 0 200 200"><rect width="200" height="200" fill="url('#gradient')"></rect><defs><linearGradient id="SvgjsLinearGradient1001" gradientTransform="rotate(45 0.5 0.5)"><stop offset="0%" stop-color="#ffffff"></stop><stop offset="100%" stop-color="#ffffff"></stop></linearGradient></defs><g><g fill="#1183d5" transform="matrix(1.8186482486433153,0,0,1.8186482486433153,27.78444666755452,113.64883762189304)" stroke="#2485ee" stroke-width="0.85"><path d="M4.95 0L1.65 0L1.65-8.28L0.12-8.28L0.12-10.57L1.65-10.57L1.65-11.41Q1.65-13.21 2.71-14.21Q3.78-15.21 5.70-15.21L5.70-15.21Q6.41-15.21 7.25-15L7.25-15L7.26-12.58Q6.95-12.67 6.45-12.67L6.45-12.67Q4.95-12.67 4.95-11.38L4.95-11.38L4.95-10.57L7.01-10.57L7.01-8.28L4.95-8.28L4.95 0ZM14.56 0L14.46-1.14Q13.42 0.20 11.64 0.20L11.64 0.20Q9.90 0.20 9.01-0.82Q8.12-1.83 8.12-3.72L8.12-3.72L8.12-10.57L11.41-10.57L11.41-3.70Q11.41-2.34 12.72-2.34L12.72-2.34Q13.86-2.34 14.34-3.15L14.34-3.15L14.34-10.57L17.65-10.57L17.65 0L14.56 0ZM19.38-10.57L22.47-10.57L22.58-9.33Q23.67-10.76 25.60-10.76L25.60-10.76Q27.25-10.76 28.06-9.78Q28.88-8.79 28.91-6.81L28.91-6.81L28.91 0L25.61 0L25.61-6.67Q25.61-7.47 25.28-7.85Q24.96-8.22 24.11-8.22L24.11-8.22Q23.14-8.22 22.68-7.46L22.68-7.46L22.68 0L19.38 0L19.38-10.57ZM30.31-5.36L30.31-5.36Q30.31-7.87 31.40-9.32Q32.48-10.76 34.42-10.76L34.42-10.76Q35.84-10.76 36.81-9.65L36.81-9.65L36.81-15L40.11-15L40.11 0L37.15 0L36.98-1.13Q35.97 0.20 34.40 0.20L34.40 0.20Q32.52 0.20 31.42-1.25Q30.31-2.70 30.31-5.36ZM33.61-5.76L33.60-5.16Q33.60-2.34 35.24-2.34L35.24-2.34Q36.34-2.34 36.81-3.26L36.81-3.26L36.81-7.29Q36.36-8.22 35.26-8.22L35.26-8.22Q33.74-8.22 33.61-5.76L33.61-5.76ZM46.01 0L42.71 0L42.71-8.28L41.17-8.28L41.17-10.57L42.71-10.57L42.71-11.41Q42.71-13.21 43.77-14.21Q44.83-15.21 46.76-15.21L46.76-15.21Q47.46-15.21 48.30-15L48.30-15L48.31-12.58Q48.01-12.67 47.50-12.67L47.50-12.67Q46.01-12.67 46.01-11.38L46.01-11.38L46.01-10.57L48.07-10.57L48.07-8.28L46.01-8.28L46.01 0ZM52.70-15L52.70 0L49.39 0L49.39-15L52.70-15ZM54.32-4.82L54.31-5.38Q54.31-6.96 54.92-8.20Q55.54-9.43 56.69-10.10Q57.84-10.76 59.39-10.76L59.39-10.76Q61.77-10.76 63.13-9.29Q64.50-7.82 64.50-5.29L64.50-5.29L64.50-5.18Q64.50-2.71 63.13-1.25Q61.76 0.20 59.41 0.20L59.41 0.20Q57.16 0.20 55.79-1.16Q54.42-2.51 54.32-4.82L54.32-4.82ZM57.61-5.77L57.60-5.18Q57.60-3.71 58.06-3.03Q58.52-2.34 59.41-2.34L59.41-2.34Q61.17-2.34 61.21-5.05L61.21-5.05L61.21-5.38Q61.21-8.22 59.39-8.22L59.39-8.22Q57.74-8.22 57.61-5.77L57.61-5.77ZM73.42-10.57L75.08-4.34L76.14-10.57L79.30-10.57L76.81 0L74.02 0L72.28-6.27L70.52 0L67.73 0L65.24-10.57L68.40-10.57L69.44-4.19L71.12-10.57L73.42-10.57Z"></path></g></g></svg><style>@media (prefers-color-scheme: light) { :root { filter: none; } }
@media (prefers-color-scheme: dark) { :root { filter: none; } }
</style></svg>